<svg width="24" height="24" viewBox="0 0 24 24" fill="none" xmlns="http://www.w3.org/2000/svg">
<path fill-rule="evenodd" clip-rule="evenodd" d="M12 18.0001L7.91565 20.1474C7.42681 20.4044 6.82218 20.2164 6.56518 19.7276C6.46284 19.5329 6.42753 19.3099 6.4647 19.0932L7.24475 14.5452L3.94042 11.3242C3.54493 10.9387 3.53684 10.3056 3.92234 9.91013C4.07585 9.75265 4.27699 9.65016 4.49463 9.61853L9.06111 8.95499L11.1033 4.81706C11.3477 4.3218 11.9473 4.11846 12.4426 4.36289C12.6398 4.46022 12.7994 4.61984 12.8968 4.81706L14.939 8.95499L19.5054 9.61853C20.052 9.69795 20.4307 10.2054 20.3512 10.7519C20.3196 10.9696 20.2171 11.1707 20.0596 11.3242L16.7553 14.5452L17.5354 19.0932C17.6287 19.6375 17.2631 20.1545 16.7188 20.2478C16.502 20.285 16.2791 20.2497 16.0844 20.1474L12 18.0001Z" stroke="#0047BB" stroke-width="1.5"/>
</svg>
